<?xml version="1.0" encoding="UTF-8"?><svg xmlns="http://www.w3.org/2000/svg" xmlns:xlink="http://www.w3.org/1999/xlink" viewBox="0 0 48 48" version="1.1"><g id="surface1"><path d="M47 19h-3.7l-.198-.2c.898-.698 1.5-1.8 1.5-3A3.8 3.8 0 0 0 40.8 12h-7v10.602L30.5 12.699 30.2 12h-5.598l-.204.7-.796 2.5V12h-14.5C7.199 12 5.8 13.5 5.8 15.398c0 .903.3 1.301.5 1.602.199.2 1 1.2 1.5 1.898H0v4h9.8c1.9 0 3.4-1.5 3.4-3.398 0-.898-.302-1.3-.5-1.602l-1.5-2h3.5v7h4.6v-7h4l-1.8 5.704L21 23h4.602l.199-.7.5-1.3h2.398l.5 1.3.2.7h9v-2.102C39 21.5 39.601 22 40 22.398c.2.102.602.602 1.398.602H48v-4zm-31.5 7.3l-3 9-.2.7H9.2l-.2-.7-1-2.698-.898 2.699L6.8 36H3.6l-.203-.7-3-9L0 25h4.7l.198.7.301 1.1.403-1.1.296-.7h4.204l.199.7.398 1.1.301-1.1.2-.7H16zM41.3 25a3.372 3.372 0 0 0-3.402 3.398c0 .903.301 1.301.5 1.602.204.2 1 1.2 1.602 1.898h-4.5-.102l-.097-.097c.898-.7 1.5-1.801 1.5-3C36.8 26.699 35.1 25 33 25h-7v11l-.398-1.3-3-9-.204-.7h-5.597l-.2.7-2.902 9-.5 1.3h4.5l.2-.7.5-1.3H20.8l.5 1.3.199.7h9.2v-2.102a20.05 20.05 0 0 0 1.698 1.5c.403.403.903.602 1.5.602H42.2c1.903 0 3.403-1.5 3.403-3.398 0-.903-.301-1.301-.5-1.602l-1.5-2H48v-4z" fill="#FFC107"/><path d="M22.5 13H9c-1.3 0-2.3 1-2.3 2.398 0 .602.198.801.3 1C7.3 16.801 9.102 19 9.102 19c0 .102.097.2.097.3.102.4-.199.7-.597.7H1v2h8.8c1.302 0 2.4-1 2.4-2.398 0-.602-.2-.801-.302-1L10 16c0-.102-.102-.2-.102-.3 0-.4.301-.7.704-.7H15.8v7h2.597v-7H22.7v-2zm7 0h-4.2l-2.902 9h2.5l.704-2h3.796l.704 2h2.5zm-3.3 5l1.198-3.602L28.602 18zm17.1 2c-.402 0-.6-.2-.8-.398C42 19 41.398 18.5 41.398 18.5a2.788 2.788 0 0 0 2.102-2.7c0-1.6-1.3-2.8-2.8-2.8h-6v9h2.698v-3.398S39.7 20.8 40.7 21.699c.102.102.403.301.801.301H47v-2zm-5.902-5H40c.602 0 1.102.398 1.102 1s-.5 1-1.102 1h-2.602zM12 26l-1.3 3.898L9.397 26H6.602l-1.403 3.898L3.9 26h-2.5l3 9h1.703L8 29.5 9.898 35h1.704l3-9zm30.7 2H47v-2h-5.7c-1.3 0-2.402 1-2.402 2.398 0 .602.204.801.301 1 .301.301 2.2 2.5 2.2 2.5 0 .102.101.204.101.301 0 .403-.3.7-.602.7h-5.296c-.403 0-.602-.2-.801-.399-.5-.602-1-1.102-1-1.102a2.785 2.785 0 0 0 2.097-2.699c0-1.597-1.296-2.8-2.796-2.8H27v9h2.7V31.5s2.3 2.2 3.3 3.102c.102.097.398.296.8.296h8.302c1.296 0 2.398-.898 2.398-2.398 0-.602-.2-.8-.3-1l-2-2.5c0-.102-.098-.2-.098-.3 0-.4.296-.7.597-.7zm-10.4 2h-2.6v-2h2.6c.598 0 1.098.398 1.098 1s-.5 1-1.097 1zm-10.6-4h-4.2l-2.898 9H17l.7-2h3.8l.7 2h2.5zm-3.302 5l1.204-3.602L20.8 31z"/></g><metadata><rdf:RDF xmlns:rdf="http://www.w3.org/1999/02/22-rdf-syntax-ns#" xmlns:rdfs="http://www.w3.org/2000/01/rdf-schema#" xmlns:dc="http://purl.org/dc/elements/1.1/"><rdf:Description about="https://iconscout.com/legal#licenses" dc:title="star,wars" dc:description="star,wars" dc:publisher="Iconscout" dc:date="2017-12-15" dc:format="image/svg+xml" dc:language="en"><dc:creator><rdf:Bag><rdf:li>Icons8</rdf:li></rdf:Bag></dc:creator></rdf:Description></rdf:RDF></metadata></svg>